HIERARCHY
ROOT Hips
{
	OFFSET 0.000000 0.000000 0.000000
	CHANNELS 6 Xposition Yposition Zposition Xrotation Yrotation Zrotation
	JOINT LeftUpLeg_virtual
	{
		OFFSET 0.000000 0.000000 0.000000
		CHANNELS 3 Xrotation Yrotation Zrotation
		JOINT LeftUpLeg
		{
			OFFSET 15.427100 -6.655098 0.678600
			CHANNELS 3 Xrotation Yrotation Zrotation
			JOINT LeftLeg
			{
				OFFSET 4.081073 -39.591068 13.024000
				CHANNELS 3 Xrotation Yrotation Zrotation
				JOINT LeftFoot
				{
					OFFSET -4.081074 -37.707932 -15.979700
					CHANNELS 3 Xrotation Yrotation Zrotation
					JOINT LeftToeBase
					{
						OFFSET 5.346399 -15.068900 20.645000
						CHANNELS 3 Xrotation Yrotation Zrotation
						JOINT LeftToe_End
						{
							OFFSET 2.754700 0.931300 11.300900
							CHANNELS 3 Xrotation Yrotation Zrotation
							End Site
							{
								OFFSET 0 0 0
							}
						}
					}
				}
			}
		}
	}
	JOINT RightUpLeg_virtual
	{
		OFFSET 0.000000 0.000000 0.000000
		CHANNELS 3 Xrotation Yrotation Zrotation
		JOINT RightUpLeg
		{
			OFFSET -15.569500 -6.655098 0.678600
			CHANNELS 3 Xrotation Yrotation Zrotation
			JOINT RightLeg
			{
				OFFSET -4.081825 -39.591045 13.023800
				CHANNELS 3 Xrotation Yrotation Zrotation
				JOINT RightFoot
				{
					OFFSET 4.081824 -37.707954 -15.979600
					CHANNELS 3 Xrotation Yrotation Zrotation
					JOINT RightToeBase
					{
						OFFSET -5.346400 -15.068900 20.645000
						CHANNELS 3 Xrotation Yrotation Zrotation
						JOINT RightToe_End
						{
							OFFSET -2.754700 0.931300 11.300900
							CHANNELS 3 Xrotation Yrotation Zrotation
							End Site
							{
								OFFSET 0 0 0
							}
						}
					}
				}
			}
		}
	}
	JOINT Spine_virtual
	{
		OFFSET 0.000000 0.000000 0.000000
		CHANNELS 3 Xrotation Yrotation Zrotation
		JOINT Spine
		{
			OFFSET -0.279200 12.230698 -2.892100
			CHANNELS 3 Xrotation Yrotation Zrotation
			JOINT Spine1
			{
				OFFSET -0.232667 10.192268 -1.242267
				CHANNELS 3 Xrotation Yrotation Zrotation
				JOINT Spine1_split
				{
					OFFSET -0.232667 10.192268 -1.242267
					CHANNELS 3 Xrotation Yrotation Zrotation
					JOINT Spine2
					{
						OFFSET -0.232667 10.192268 -1.242267
						CHANNELS 3 Xrotation Yrotation Zrotation
						JOINT Neck_virtual
						{
							OFFSET 0.000000 0.000000 0.000000
							CHANNELS 3 Xrotation Yrotation Zrotation
							JOINT Neck
							{
								OFFSET -0.418800 17.814194 8.416900
								CHANNELS 3 Xrotation Yrotation Zrotation
								JOINT Head
								{
									OFFSET 0.000000 7.031097 3.806800
									CHANNELS 3 Xrotation Yrotation Zrotation
									JOINT HeadTop_End
									{
										OFFSET 0.000000 24.646606 12.978600
										CHANNELS 3 Xrotation Yrotation Zrotation
										End Site
										{
											OFFSET 0 0 0
										}
									}
								}
							}
						}
						JOINT LeftShoulder_virtual
						{
							OFFSET 0.000000 0.000000 0.000000
							CHANNELS 3 Xrotation Yrotation Zrotation
							JOINT LeftShoulder
							{
								OFFSET 8.476499 7.247704 -3.868750
								CHANNELS 3 Xrotation Yrotation Zrotation
								JOINT LeftShoulder_split
								{
									OFFSET 8.476499 7.247704 -3.868750
									CHANNELS 3 Xrotation Yrotation Zrotation
									JOINT LeftArm
									{
										OFFSET 9.308998 -2.777710 0.208600
										CHANNELS 3 Xrotation Yrotation Zrotation
										JOINT LeftForeArm
										{
											OFFSET 29.972298 0.000000 0.000000
											CHANNELS 3 Xrotation Yrotation Zrotation
											JOINT LeftHand
											{
												OFFSET 26.026505 0.000000 0.000000
												CHANNELS 3 Xrotation Yrotation Zrotation
												End Site
												{
													OFFSET 0 0 0
												}
											}
										}
									}
								}
							}
						}
						JOINT RightShoulder_virtual
						{
							OFFSET 0.000000 0.000000 0.000000
							CHANNELS 3 Xrotation Yrotation Zrotation
							JOINT RightShoulder
							{
								OFFSET -7.570500 7.247704 -3.868750
								CHANNELS 3 Xrotation Yrotation Zrotation
								JOINT RightShoulder_split
								{
									OFFSET -7.570500 7.247704 -3.868750
									CHANNELS 3 Xrotation Yrotation Zrotation
									JOINT RightArm
									{
										OFFSET -9.308998 -2.777710 0.208500
										CHANNELS 3 Xrotation Yrotation Zrotation
										JOINT RightForeArm
										{
											OFFSET -29.972300 0.000000 0.000000
											CHANNELS 3 Xrotation Yrotation Zrotation
											JOINT RightHand
											{
												OFFSET -26.026505 0.000000 0.000000
												CHANNELS 3 Xrotation Yrotation Zrotation
												End Site
												{
													OFFSET 0 0 0
												}
											}
										}
									}
								}
							}
						}
					}
				}
			}
		}
	}
}
MOTION
Frames: 4
Frame Time: 0.03333333
0.315136 76.799332 -1.308651 0.000000 0.000000 0.000000 -15.833410 4.591028 0.697978 -16.449278 -1.579479 16.377153 51.054281 0.948104 -1.169862 -23.159341 0.260148 -14.867403 -1.439952 -0.261687 0.321634 0.000000 0.000000 0.000000 -16.170075 2.627631 0.467459 -11.904418 -4.296389 -22.094419 50.885422 3.538064 4.175582 -25.018597 -5.631622 12.083582 0.581818 0.771390 0.468272 0.000000 0.000000 0.000000 -14.899108 1.471851 -0.050984 18.811162 0.140982 2.448337 5.750119 -0.045997 -0.190916 2.307160 5.584557 -0.396680 0.000000 0.000000 0.000000 6.140053 -0.141753 0.347136 -10.932700 -1.374962 2.682895 -17.349244 1.799521 -0.682143 0.000000 0.000000 0.000000 7.922916 -0.190313 0.721477 3.616466 -8.004722 -4.765733 -4.852971 -1.317811 -4.229045 -10.777233 -17.430141 -58.459828 70.587785 -61.667012 71.000192 0.000000 0.000000 0.000000 7.455369 -0.107273 -0.139459 10.030302 -5.488268 16.234327 3.330674 2.789249 -0.825217 -27.609149 12.054523 60.327803 90.521617 61.359162 -85.098037 0.000000 0.000000 0.000000 
0.221201 76.783798 -1.129475 0.000000 0.000000 0.000000 -15.931669 4.682756 0.657139 -16.346086 -1.857536 16.490590 51.026035 0.810662 -1.182180 -23.271901 0.231979 -14.860260 -1.330287 -0.253248 0.359629 0.000000 0.000000 0.000000 -16.281187 3.033364 0.486317 -11.674917 -4.294494 -22.052169 51.135085 3.572731 4.188748 -25.246116 -5.619358 11.811378 0.925406 0.802653 0.451147 0.000000 0.000000 0.000000 -15.062939 1.841147 -0.081184 18.739835 0.063376 2.400018 5.938171 -0.017130 -0.123536 2.174284 5.643519 -0.135488 0.000000 0.000000 0.000000 6.234653 -0.166733 0.393115 -11.196073 -1.141325 2.239739 -17.503239 2.064075 -0.739529 0.000000 0.000000 0.000000 7.969205 -0.133151 0.798281 3.705822 -7.954630 -4.390362 -4.550207 -1.450780 -4.406991 -12.759128 -17.760426 -60.058482 68.163867 -61.249011 68.707373 0.000000 0.000000 0.000000 7.570508 -0.115140 -0.099451 9.858653 -5.786307 16.268512 3.418977 2.074663 0.783521 -27.127689 10.760435 60.687952 88.271077 62.488199 -83.226395 0.000000 0.000000 0.000000 
0.130561 76.820816 -0.927429 0.000000 0.000000 0.000000 -16.225625 4.831908 0.672059 -16.133692 -2.174738 16.419985 51.061278 0.676330 -1.156025 -23.523832 0.273113 -14.873259 -1.182423 -0.208135 0.315183 0.000000 0.000000 0.000000 -16.522639 3.407704 0.516590 -11.190520 -4.508749 -22.142995 51.282860 3.786064 4.181999 -25.304674 -5.635678 11.875591 0.823794 0.797067 0.434638 0.000000 0.000000 0.000000 -15.445520 2.429021 -0.092135 18.850994 -0.127046 2.199035 6.299771 0.084373 0.006588 1.944539 4.837969 0.025919 0.000000 0.000000 0.000000 6.525440 -0.078899 0.403405 -11.055183 -0.883791 1.351347 -18.015047 2.212055 -0.745611 0.000000 0.000000 0.000000 8.105840 -0.010519 0.885910 3.528230 -8.657695 -4.089782 -4.326509 -2.209101 -3.623561 -12.995826 -16.968253 -60.120520 61.839577 -61.969780 62.693179 0.000000 0.000000 0.000000 7.897130 -0.006407 0.028356 9.431389 -5.907570 16.345119 1.986757 1.572374 1.210719 -25.057568 11.507930 59.635584 84.526883 65.872687 -80.508744 0.000000 0.000000 0.000000 
0.073645 76.934052 -0.747372 0.000000 0.000000 0.000000 -16.666736 4.988293 0.746548 -15.749054 -2.417967 16.104809 51.081134 0.594368 -1.063768 -23.838625 0.374602 -14.837640 -1.059139 -0.143494 0.207380 0.000000 0.000000 0.000000 -16.846568 3.673100 0.569145 -10.433812 -4.916422 -22.324825 51.228304 4.072430 4.183494 -25.339795 -5.710101 12.084567 0.511579 0.759972 0.441481 0.000000 0.000000 0.000000 -15.960182 2.980552 -0.050590 19.078414 -0.417231 1.904877 6.750713 0.215393 0.129683 1.482757 3.455654 0.637505 0.000000 0.000000 0.000000 6.964460 0.036975 0.378326 -10.335867 -0.608691 0.191647 -18.614234 2.326971 -0.813288 0.000000 0.000000 0.000000 8.294506 0.103716 0.947529 3.153791 -9.915184 -3.673750 -4.147052 -3.487051 -2.430685 -11.301248 -15.531405 -58.075719 53.674116 -63.988805 54.849879 0.000000 0.000000 0.000000 8.325487 0.121833 0.178864 8.866045 -5.824272 16.167556 -0.359029 1.228599 0.887948 -20.803616 13.767454 56.458634 81.552028 71.231531 -78.753379 0.000000 0.000000 0.000000 
